<?xml version="1.0" encoding="utf-8"?>
<?xml-stylesheet type="text/xsl" href="rss1.xsl"?>
<rss version="2.0" xmlns:atom="http://www.w3.org/2005/Atom" xmlns:content="http://purl.org/rss/1.0/modules/content/" xmlns:dc="http://purl.org/dc/elements/1.1/" xmlns:media="http://search.yahoo.com/mrss/">
<channel>
 <title>Getty</title>
 <link>http://www.gettyimg.com/</link>
 <atom:link href="http://www.gettyimg.com/" rel="self" type="application/rss+xml" />

 
                <item>
                <title><![CDATA[【BLU-RAY &amp; BD RIP】AKB48- GIVE ME FIVE! M2TS LPCM]]></title>
                <link><![CDATA[https://sharemania.us/threads/akb48-give-me-five-m2ts-lpcm.235453/]]></link>
                <description><![CDATA[<article>
<blockquote class="messageText SelectQuoteContainer ugc baseHtml">
<img src="https://i.imgur.com/frZpgTE.jpg" class="bbCodeImage LbImage" alt="[​IMG]" data-url="https://i.imgur.com/frZpgTE.jpg" style=""> <br>
<br>
General<br>
ID : 0 (0x0)<br>
Complete name : D:\♬.AKB48 MV Blu-ray 1920x1080\♬.GIVE ME FIVE!.m2ts<br>
Format : BDAV<br>
Format/Info : Blu-ray Video<br>
File size : 1.33 GiB<br>
Duration : 5 min 13 s<br>
Overall bit rate mode : Variable<br>
Overall bit rate : 36.5 Mb/s<br>
Maximum Overall bit rate : 48.0 Mb/s<br>
Frame rate : 29.970 FPS<br>
Video<br>
ID : 4113 (0x1011)<br>
Menu ID : 1 (0x1)<br>
Format : AVC<br>
Format/Info : Advanced Video Codec<br>
Format profile : High@L4.1<br>
Format settings : CABAC / 4 Ref Frames<br>
Format settings, CABAC : Yes<br>
Format settings, Reference fra : 4 frames<br>
Codec ID : 27<br>
Duration : 5 min 14 s<br>
Bit rate mode : Variable<br>
Bit rate : 33.5 Mb/s<br>
Maximum bit rate : 37.0 Mb/s<br>
Width : 1 920 pixels<br>
Height : 1 080 pixels<br>
Display aspect ratio : 16:9<br>
Frame rate : 29.970 (30000/1001) FPS<br>
Color space : YUV<br>
Chroma subsampling : 4:2:0<br>
Bit depth : 8 bits<br>
Scan type : MBAFF<br>
Scan type, store method : Interleaved fields<br>
Scan order : Top Field First<br>
Bits/(Pixel*Frame) : 0.538<br>
Stream size : 1.23 GiB (92%)<br>
Audio<br>
ID : 4352 (0x1100)<br>
Menu ID : 1 (0x1)<br>
Format : PCM<br>
Format settings : Big / Signed<br>
Muxing mode : Blu-ray<br>
Codec ID : 128<br>
Duration : 5 min 14 s<br>
Bit rate mode : Constant<br>
Bit rate : 1 536 kb/s<br>
Channel(s) : 2 channels<br>
Channel layout : L R<br>
Sampling rate : 48.0 kHz<br>
<br>
<br>
<br>
<br>
<div class="bbCodeBlock bbCodeVfcHH HiddenContent">
<div class="attribution type">Hidden Content:</div>
<blockquote>You must reply before you can see the hidden data contained here.</blockquote>
</div>
<div class="messageTextEndMarker">&nbsp;</div>
</blockquote>
</article>]]></description>
                <author><![CDATA[Crimseney101]]></author>
                </item>

                
                <item>
                <title><![CDATA[【Requests】[REQ VID] - Ariana Grande - One Last Time (The Tonight Show Starring Jimmy Fallon 02-01-15) 1080i]]></title>
                <link><![CDATA[https://sharemania.us/threads/ariana-grande-one-last-time-the-tonight-show-starring-jimmy-fallon-02-01-15-1080i.235454/]]></link>
                <description><![CDATA[<article>
<blockquote class="messageText SelectQuoteContainer ugc baseHtml">
Anyone have this? All links of it are taken down unfortunately. <br>
<img src="https://imgur.com/a/jEzoxwX" class="bbCodeImage LbImage" alt="[​IMG]" data-url="https://imgur.com/a/jEzoxwX" style="">
<div class="messageTextEndMarker">&nbsp;</div>
</blockquote>
</article>]]></description>
                <author><![CDATA[rainyfischbach]]></author>
                </item>

                
                <item>
                <title><![CDATA[【BLU-RAY &amp; BD RIP】AKB48- Everyday, Kachuusha M2TS LPCM]]></title>
                <link><![CDATA[https://sharemania.us/threads/akb48-everyday-kachuusha-m2ts-lpcm.235455/]]></link>
                <description><![CDATA[<article>
<blockquote class="messageText SelectQuoteContainer ugc baseHtml">
<img src="https://i.imgur.com/WgaW5lb.png" class="bbCodeImage LbImage" alt="[​IMG]" data-url="https://i.imgur.com/WgaW5lb.png" style=""> <br>
<br>
General<br>
ID : 0 (0x0)<br>
Complete name : D:\♬.AKB48 MV Blu-ray 1920x1080\♬.Everyday, Headband Girl.m2ts<br>
Format : BDAV<br>
Format/Info : Blu-ray Video<br>
File size : 1.87 GiB<br>
Duration : 7 min 19 s<br>
Overall bit rate mode : Variable<br>
Overall bit rate : 36.4 Mb/s<br>
Maximum Overall bit rate : 48.0 Mb/s<br>
Frame rate : 29.970 FPS<br>
Video<br>
ID : 4113 (0x1011)<br>
Menu ID : 1 (0x1)<br>
Format : AVC<br>
Format/Info : Advanced Video Codec<br>
Format profile : High@L4.1<br>
Format settings : CABAC / 4 Ref Frames<br>
Format settings, CABAC : Yes<br>
Format settings, Reference fra : 4 frames<br>
Codec ID : 27<br>
Duration : 7 min 20 s<br>
Bit rate mode : Variable<br>
Bit rate : 33.4 Mb/s<br>
Maximum bit rate : 37.0 Mb/s<br>
Width : 1 920 pixels<br>
Height : 1 080 pixels<br>
Display aspect ratio : 16:9<br>
Frame rate : 29.970 (30000/1001) FPS<br>
Color space : YUV<br>
Chroma subsampling : 4:2:0<br>
Bit depth : 8 bits<br>
Scan type : MBAFF<br>
Scan type, store method : Interleaved fields<br>
Scan order : Top Field First<br>
Bits/(Pixel*Frame) : 0.538<br>
Stream size : 1.72 GiB (92%)<br>
Audio<br>
ID : 4352 (0x1100)<br>
Menu ID : 1 (0x1)<br>
Format : PCM<br>
Format settings : Big / Signed<br>
Muxing mode : Blu-ray<br>
Codec ID : 128<br>
Duration : 7 min 20 s<br>
Bit rate mode : Constant<br>
Bit rate : 1 536 kb/s<br>
Channel(s) : 2 channels<br>
Channel layout : L R<br>
Sampling rate : 48.0 kHz<br>
Bit depth : 16 bits<br>
Stream size : 80.7 MiB (4%)<br>
<br>
<br>
<div class="bbCodeBlock bbCodeVfcHH HiddenContent">
<div class="attribution type">Hidden Content:</div>
<blockquote>You must reply before you can see the hidden data contained here.</blockquote>
</div>
<div class="messageTextEndMarker">&nbsp;</div>
</blockquote>
</article>]]></description>
                <author><![CDATA[Crimseney101]]></author>
                </item>

                
                <item>
                <title><![CDATA[【BLU-RAY &amp; BD RIP】AKB48- Ponytail to shushuu LPCM bluray]]></title>
                <link><![CDATA[https://sharemania.us/threads/akb48-ponytail-to-shushuu-lpcm-bluray.235456/]]></link>
                <description><![CDATA[<article>
<blockquote class="messageText SelectQuoteContainer ugc baseHtml">
one of the best akb48 songss!! <br>
<br>
<img src="https://i.imgur.com/ln1PJ9r.png" class="bbCodeImage LbImage" alt="[​IMG]" data-url="https://i.imgur.com/ln1PJ9r.png" style=""> <br>
<br>
General<br>
ID : 0 (0x0)<br>
Complete name : D:\♬.AKB48 MV Blu-ray 1920x1080\♬.Ponytail to shushuu MV.m2ts<br>
Format : BDAV<br>
Format/Info : Blu-ray Video<br>
File size : 1.80 GiB<br>
Duration : 6 min 41 s<br>
Overall bit rate mode : Variable<br>
Overall bit rate : 38.6 Mb/s<br>
Maximum Overall bit rate : 48.0 Mb/s<br>
Frame rate : 29.970 FPS<br>
Video<br>
ID : 4113 (0x1011)<br>
Menu ID : 1 (0x1)<br>
Format : AVC<br>
Format/Info : Advanced Video Codec<br>
Format profile : High@L4.1<br>
Format settings : CABAC / 2 Ref Frames<br>
Format settings, CABAC : Yes<br>
Format settings, Reference fra : 2 frames<br>
Codec ID : 27<br>
Duration : 6 min 40 s<br>
Bit rate mode : Variable<br>
Bit rate : 35.5 Mb/s<br>
Width : 1 920 pixels<br>
Height : 1 080 pixels<br>
Display aspect ratio : 16:9<br>
Frame rate : 29.970 (30000/1001) FPS<br>
Color space : YUV<br>
Chroma subsampling : 4:2:0<br>
Bit depth : 8 bits<br>
Scan type : Interlaced<br>
Scan type, store method : Separated fields<br>
Scan order : Top Field First<br>
Bits/(Pixel*Frame) : 0.571<br>
Time code of first frame : 01:04:47:0000000026<br>
Stream size : 1.66 GiB (92%)<br>
Audio<br>
ID : 4352 (0x1100)<br>
Menu ID : 1 (0x1)<br>
Format : PCM<br>
Format settings : Big / Signed<br>
Muxing mode : Blu-ray<br>
Codec ID : 128<br>
Duration : 6 min 41 s<br>
Bit rate mode : Constant<br>
Bit rate : 1 536 kb/s<br>
Channel(s) : 2 channels<br>
Channel layout : L R<br>
<br>
<div class="bbCodeBlock bbCodeVfcHH HiddenContent">
<div class="attribution type">Hidden Content:</div>
<blockquote>You must reply before you can see the hidden data contained here.</blockquote>
</div>
<div class="messageTextEndMarker">&nbsp;</div>
</blockquote>
</article>]]></description>
                <author><![CDATA[Crimseney101]]></author>
                </item>

                </channel></rss>